<svg width="30" height="30" viewBox="0 0 30 30" fill="none" xmlns="http://www.w3.org/2000/svg">
<path d="M15 30C12.925 30 10.975 29.6062 9.15 28.8187C7.325 28.0312 5.7375 26.9625 4.3875 25.6125C3.0375 24.2625 1.96875 22.675 1.18125 20.85C0.39375 19.025 0 17.075 0 15C0 12.925 0.39375 10.975 1.18125 9.14999C1.96875 7.32499 3.0375 5.73749 4.3875 4.38749C5.7375 3.03749 7.325 1.96874 9.15 1.18124C10.975 0.393742 12.925 -7.62939e-06 15 -7.62939e-06C16.625 -7.62939e-06 18.1625 0.237492 19.6125 0.712492C21.0625 1.18749 22.4 1.84999 23.625 2.69999L21.45 4.91249C20.5 4.31249 19.4875 3.84374 18.4125 3.50624C17.3375 3.16874 16.2 2.99999 15 2.99999C11.675 2.99999 8.84375 4.16874 6.50625 6.50624C4.16875 8.84374 3 11.675 3 15C3 18.325 4.16875 21.1562 6.50625 23.4937C8.84375 25.8312 11.675 27 15 27C18.325 27 21.1562 25.8312 23.4937 23.4937C25.8312 21.1562 27 18.325 27 15C27 14.55 26.975 14.1 26.925 13.65C26.875 13.2 26.8 12.7625 26.7 12.3375L29.1375 9.89999C29.4125 10.7 29.625 11.525 29.775 12.375C29.925 13.225 30 14.1 30 15C30 17.075 29.6062 19.025 28.8187 20.85C28.0312 22.675 26.9625 24.2625 25.6125 25.6125C24.2625 26.9625 22.675 28.0312 20.85 28.8187C19.025 29.6062 17.075 30 15 30ZM12.9 21.9L6.525 15.525L8.625 13.425L12.9 17.7L27.9 2.66249L30 4.76249L12.9 21.9Z" fill="#1C1B1F"/>
</svg>
