<svg width="85" height="22" viewBox="0 0 85 22" fill="none" xmlns="http://www.w3.org/2000/svg">
<path d="M25.7792 15.7439C25.7792 16.6187 25.6164 17.4376 25.2909 18.2006C24.9654 18.9533 24.5178 19.6145 23.9481 20.1842C23.3886 20.7437 22.7274 21.1862 21.9645 21.5117C21.2117 21.8372 20.403 22 19.5383 22H0.525879V18.8719H19.5383C19.9757 18.8719 20.3826 18.7906 20.759 18.6278C21.1354 18.465 21.4609 18.2413 21.7356 17.9564C22.0204 17.6716 22.2442 17.341 22.407 16.9646C22.5697 16.578 22.6511 16.1711 22.6511 15.7439C22.6511 15.3167 22.5697 14.9148 22.407 14.5385C22.2442 14.1621 22.0204 13.8315 21.7356 13.5466C21.4609 13.2618 21.1354 13.038 20.759 12.8752C20.3826 12.7125 19.9757 12.6311 19.5383 12.6311H6.78198C5.92749 12.6311 5.11877 12.4683 4.35583 12.1428C3.5929 11.8173 2.9266 11.3748 2.35693 10.8153C1.79744 10.2456 1.34985 9.57935 1.01416 8.81641C0.688639 8.05347 0.525879 7.23966 0.525879 6.375C0.525879 5.52051 0.688639 4.71179 1.01416 3.94885C1.34985 3.18591 1.79744 2.5247 2.35693 1.96521C2.9266 1.39555 3.5929 0.947957 4.35583 0.622437C5.11877 0.286743 5.92749 0.118896 6.78198 0.118896H24.2228V3.24695H6.78198C6.35474 3.24695 5.94784 3.32833 5.56128 3.49109C5.1849 3.65385 4.85429 3.87764 4.56946 4.16248C4.28463 4.44731 4.06083 4.783 3.89807 5.16956C3.73531 5.54594 3.65393 5.94775 3.65393 6.375C3.65393 6.80225 3.73531 7.20915 3.89807 7.5957C4.06083 7.97209 4.28463 8.30269 4.56946 8.58752C4.85429 8.87236 5.1849 9.09615 5.56128 9.25891C5.94784 9.42167 6.35474 9.50305 6.78198 9.50305H19.5383C20.403 9.50305 21.2117 9.6709 21.9645 10.0066C22.7274 10.3321 23.3886 10.7797 23.9481 11.3494C24.5178 11.9089 24.9654 12.5701 25.2909 13.333C25.6164 14.0858 25.7792 14.8894 25.7792 15.7439ZM52.36 22H38.2761C36.7604 22 35.382 21.7152 34.141 21.1455C32.8999 20.5758 31.8369 19.7976 30.9519 18.8109C30.0771 17.8242 29.4006 16.6645 28.9225 15.3319C28.4444 13.9993 28.2053 12.5752 28.2053 11.0594C28.2053 9.55391 28.4444 8.13993 28.9225 6.8175C29.4006 5.4849 30.0771 4.32524 30.9519 3.3385C31.8369 2.34159 32.8999 1.55831 34.141 0.988647C35.382 0.408813 36.7604 0.118896 38.2761 0.118896H52.36V3.24695H38.2761C37.1978 3.24695 36.2264 3.45549 35.3617 3.87256C34.5072 4.27946 33.7799 4.83895 33.1797 5.55103C32.5897 6.25293 32.1319 7.0769 31.8064 8.02295C31.491 8.96899 31.3334 9.98116 31.3334 11.0594C31.3334 12.1377 31.491 13.155 31.8064 14.1112C32.1319 15.0573 32.5897 15.8863 33.1797 16.5984C33.7799 17.3003 34.5072 17.8547 35.3617 18.2616C36.2264 18.6685 37.1978 18.8719 38.2761 18.8719H52.36V22ZM71.9065 22H68.7784V11.0594C68.7784 9.98116 68.575 8.96899 68.1681 8.02295C67.7612 7.0769 67.2017 6.25293 66.4896 5.55103C65.7877 4.83895 64.9587 4.27946 64.0024 3.87256C63.0564 3.45549 62.0442 3.24695 60.9659 3.24695H59.2875V22H56.1594V0.118896H60.9659C61.9628 0.118896 62.9191 0.251139 63.8346 0.515625C64.7603 0.769938 65.625 1.13106 66.4286 1.599C67.2322 2.06694 67.9646 2.62642 68.6259 3.27747C69.2871 3.92851 69.8618 4.65076 70.3501 5.44421C70.8282 4.65076 71.3979 3.92851 72.0591 3.27747C72.7203 2.62642 73.4527 2.06694 74.2563 1.599C75.06 1.13106 75.9196 0.769938 76.8351 0.515625C77.7608 0.251139 78.7221 0.118896 79.719 0.118896H84.5408V22H81.4127V3.24695H79.719C78.6407 3.24695 77.6285 3.45549 76.6825 3.87256C75.7365 4.27946 74.9074 4.83895 74.1953 5.55103C73.4934 6.25293 72.9339 7.0769 72.5168 8.02295C72.1099 8.96899 71.9065 9.98116 71.9065 11.0594V22Z" fill="black"/>
</svg>
